<svg width="477" height="87" viewBox="0 0 477 87" fill="none" xmlns="http://www.w3.org/2000/svg">
<path d="M53.3542 85.375L44.6458 26.625H43.9167L35.3333 85.375H12.1458L0 0.979126H17.0625L24.2917 67.1041H25.1458L34.7083 0.979126H54.5833L64.2708 67.1041H65.1458L72 0.979126H88.6875L76.4167 85.375H53.3542Z" fill="#F04E23"/>
<path d="M130.625 85.375L127.312 68.0833H108.437L105.125 85.375H88.3123L105.729 0.979126H130.396L147.812 85.375H130.625ZM118.25 16.9166H117.5L110.875 53.4791H124.75L118.25 16.9166Z" fill="#F04E23"/>
<path d="M189.388 85.375L181.159 55.9375H172.096V85.375H155.159V0.979126H183.617C189.669 0.979126 194.232 1.99996 197.305 4.04163C200.372 6.08329 202.435 9.03121 203.492 12.875C204.56 16.7239 205.096 21.875 205.096 28.3333C205.096 34.4739 204.539 39.552 203.43 43.5625C202.331 47.5625 200.102 50.5833 196.742 52.625L206.93 85.375H189.388ZM179.576 41.3333C182.268 41.3333 184.185 41.0312 185.326 40.4166C186.477 39.8073 187.232 38.6614 187.596 36.9791C187.971 35.302 188.159 32.4583 188.159 28.4583C188.159 24.5312 187.971 21.75 187.596 20.125C187.232 18.4895 186.477 17.3645 185.326 16.75C184.185 16.1406 182.268 15.8333 179.576 15.8333H172.096V41.3333H179.576Z" fill="#F04E23"/>
<path d="M215.751 0.979126H243.605C249.574 0.979126 254.09 2.04163 257.147 4.16663C260.215 6.29163 262.277 9.38538 263.334 13.4375C264.402 17.4791 264.939 22.8541 264.939 29.5625C264.939 36.0208 264.444 41.2812 263.459 45.3333C262.486 49.375 260.444 52.5625 257.334 54.8958C254.22 57.2291 249.605 58.3958 243.48 58.3958H232.689V85.375H215.751V0.979126ZM239.314 43.5416C242.09 43.5416 244.048 43.2187 245.189 42.5625C246.34 41.9114 247.095 40.6666 247.459 38.8333C247.834 36.9895 248.022 33.8958 248.022 29.5625C248.022 25.2291 247.834 22.1666 247.459 20.375C247.095 18.5729 246.361 17.3645 245.251 16.75C244.152 16.1406 242.215 15.8333 239.439 15.8333H232.689V43.5416H239.314Z" fill="#F04E23"/>
<path d="M274.013 85.375V0.979126H314.992V15.8333H290.95V35.3333H311.68V50.1666H290.95V70.5416H314.992V85.375H274.013Z" fill="#F04E23"/>
<path d="M362.568 85.375L359.255 68.0833H340.38L337.068 85.375H320.255L337.672 0.979126H362.339L379.755 85.375H362.568ZM350.193 16.9166H349.443L342.818 53.4791H356.693L350.193 16.9166Z" fill="#F04E23"/>
<path d="M425.873 84.2708C424.149 84.8438 421.92 85.3281 419.185 85.7292C416.446 86.1458 413.852 86.3542 411.394 86.3542C403.711 86.3542 398.066 85.0938 394.456 82.5625C390.857 80.0208 388.467 75.8073 387.29 69.9167C386.107 64.0312 385.519 55.1198 385.519 43.1875C385.519 31.3281 386.128 22.4323 387.352 16.5C388.571 10.5729 391.003 6.34375 394.644 3.8125C398.279 1.27083 403.862 0 411.394 0C414.086 0 416.758 0.1875 419.415 0.5625C422.081 0.927083 424.149 1.39063 425.623 1.95833V15.7083C420.883 15.125 417.29 14.8333 414.831 14.8333C410.665 14.8333 407.779 15.3906 406.185 16.5C404.586 17.599 403.56 19.9531 403.102 23.5625C402.654 27.1615 402.435 33.7031 402.435 43.1875C402.435 52.6771 402.654 59.2188 403.102 62.8125C403.56 66.4115 404.586 68.7656 406.185 69.875C407.779 70.974 410.665 71.5208 414.831 71.5208C418.592 71.5208 422.274 71.2292 425.873 70.6458V84.2708Z" fill="#F04E23"/>
<path d="M435.674 85.375V0.979126H476.653V15.8333H452.611V35.3333H473.341V50.1666H452.611V70.5416H476.653V85.375H435.674Z" fill="#F04E23"/>
</svg>
