<svg width="50" height="51" viewBox="0 0 50 51" fill="none" xmlns="http://www.w3.org/2000/svg">
<path d="M32.3242 2.0625C32.3242 14.4328 39.0094 25.5 48.4375 25.5C39.0094 25.5 32.3242 36.568 32.3242 48.9375C32.3242 36.568 25.6391 25.5 16.2109 25.5C25.6391 25.5 32.3242 14.4328 32.3242 2.0625Z" fill="white"/>
<path d="M13.2812 25.5C13.2812 31.6859 16.6226 37.2188 21.3383 37.2188C16.6226 37.2188 13.2812 42.7531 13.2812 48.9375C13.2812 42.7531 9.93982 37.2188 5.2242 37.2188C9.93982 37.2188 13.2812 31.6859 13.2812 25.5Z" fill="white"/>
<path d="M9.61875 2.0625C9.61875 8.24766 12.9602 13.7812 17.6758 13.7812C12.9609 13.7812 9.61875 19.3156 9.61875 25.5C9.61875 19.3156 6.27734 13.7812 1.56172 13.7812C6.27734 13.7812 9.61875 8.24766 9.61875 2.0625Z" fill="white"/>
</svg>
