<svg xmlns="http://www.w3.org/2000/svg" xmlns:xlink="http://www.w3.org/1999/xlink" width="1920" zoomAndPan="magnify" viewBox="0 0 1440 809.999993" height="1080" preserveAspectRatio="xMidYMid meet" version="1.2"><defs/><g id="1c8420c8e4"><g style="fill:#f04e23;fill-opacity:1;"><g transform="translate(538.86325, 415.605673)"><path style="stroke:none" d="M 41.578125 0 L 35.046875 -44.0625 L 34.5 -44.0625 L 28.0625 0 L 10.671875 0 L 1.5625 -63.296875 L 14.359375 -63.296875 L 19.78125 -13.703125 L 20.421875 -13.703125 L 27.59375 -63.296875 L 42.5 -63.296875 L 49.765625 -13.703125 L 50.421875 -13.703125 L 55.5625 -63.296875 L 68.078125 -63.296875 L 58.875 0 Z M 41.578125 0 "/></g></g><g style="fill:#f04e23;fill-opacity:1;"><g transform="translate(605.925533, 415.605673)"><path style="stroke:none" d="M 32.46875 0 L 29.984375 -12.96875 L 15.828125 -12.96875 L 13.34375 0 L 0.734375 0 L 13.796875 -63.296875 L 32.296875 -63.296875 L 45.359375 0 Z M 23.1875 -51.34375 L 22.625 -51.34375 L 17.65625 -23.921875 L 28.0625 -23.921875 Z M 23.1875 -51.34375 "/></g></g><g style="fill:#f04e23;fill-opacity:1;"><g transform="translate(652.013658, 415.605673)"><path style="stroke:none" d="M 30.453125 0 L 24.28125 -22.078125 L 17.484375 -22.078125 L 17.484375 0 L 4.78125 0 L 4.78125 -63.296875 L 26.125 -63.296875 C 30.664062 -63.296875 34.085938 -62.53125 36.390625 -61 C 38.691406 -59.46875 40.238281 -57.257812 41.03125 -54.375 C 41.832031 -51.488281 42.234375 -47.625 42.234375 -42.78125 C 42.234375 -38.175781 41.816406 -34.367188 40.984375 -31.359375 C 40.160156 -28.359375 38.488281 -26.09375 35.96875 -24.5625 L 43.609375 0 Z M 23.09375 -33.03125 C 25.113281 -33.03125 26.550781 -33.257812 27.40625 -33.71875 C 28.269531 -34.175781 28.835938 -35.035156 29.109375 -36.296875 C 29.390625 -37.554688 29.53125 -39.6875 29.53125 -42.6875 C 29.53125 -45.632812 29.390625 -47.71875 29.109375 -48.9375 C 28.835938 -50.164062 28.269531 -51.007812 27.40625 -51.46875 C 26.550781 -51.925781 25.113281 -52.15625 23.09375 -52.15625 L 17.484375 -52.15625 L 17.484375 -33.03125 Z M 23.09375 -33.03125 "/></g></g><g style="fill:#f04e23;fill-opacity:1;"><g transform="translate(697.457835, 415.605673)"><path style="stroke:none" d="M 4.78125 -63.296875 L 25.671875 -63.296875 C 30.148438 -63.296875 33.535156 -62.5 35.828125 -60.90625 C 38.128906 -59.3125 39.675781 -56.992188 40.46875 -53.953125 C 41.269531 -50.921875 41.671875 -46.890625 41.671875 -41.859375 C 41.671875 -37.015625 41.300781 -33.070312 40.5625 -30.03125 C 39.832031 -27 38.300781 -24.609375 35.96875 -22.859375 C 33.632812 -21.109375 30.171875 -20.234375 25.578125 -20.234375 L 17.484375 -20.234375 L 17.484375 0 L 4.78125 0 Z M 22.453125 -31.375 C 24.535156 -31.375 26.003906 -31.617188 26.859375 -32.109375 C 27.722656 -32.597656 28.289062 -33.53125 28.5625 -34.90625 C 28.84375 -36.289062 28.984375 -38.609375 28.984375 -41.859375 C 28.984375 -45.109375 28.84375 -47.40625 28.5625 -48.75 C 28.289062 -50.101562 27.738281 -51.007812 26.90625 -51.46875 C 26.082031 -51.925781 24.628906 -52.15625 22.546875 -52.15625 L 17.484375 -52.15625 L 17.484375 -31.375 Z M 22.453125 -31.375 "/></g></g><g style="fill:#f04e23;fill-opacity:1;"><g transform="translate(741.154156, 415.605673)"><path style="stroke:none" d="M 4.78125 0 L 4.78125 -63.296875 L 35.515625 -63.296875 L 35.515625 -52.15625 L 17.484375 -52.15625 L 17.484375 -37.53125 L 33.03125 -37.53125 L 33.03125 -26.40625 L 17.484375 -26.40625 L 17.484375 -11.125 L 35.515625 -11.125 L 35.515625 0 Z M 4.78125 0 "/></g></g><g style="fill:#f04e23;fill-opacity:1;"><g transform="translate(779.882906, 415.605673)"><path style="stroke:none" d="M 32.46875 0 L 29.984375 -12.96875 L 15.828125 -12.96875 L 13.34375 0 L 0.734375 0 L 13.796875 -63.296875 L 32.296875 -63.296875 L 45.359375 0 Z M 23.1875 -51.34375 L 22.625 -51.34375 L 17.65625 -23.921875 L 28.0625 -23.921875 Z M 23.1875 -51.34375 "/></g></g><g style="fill:#f04e23;fill-opacity:1;"><g transform="translate(825.971008, 415.605673)"><path style="stroke:none" d="M 33.859375 -0.828125 C 32.566406 -0.398438 30.894531 -0.0351562 28.84375 0.265625 C 26.789062 0.578125 24.84375 0.734375 23 0.734375 C 17.238281 0.734375 13.003906 -0.210938 10.296875 -2.109375 C 7.597656 -4.015625 5.804688 -7.175781 4.921875 -11.59375 C 4.035156 -16.007812 3.59375 -22.691406 3.59375 -31.640625 C 3.59375 -40.535156 4.050781 -47.207031 4.96875 -51.65625 C 5.882812 -56.101562 7.707031 -59.273438 10.4375 -61.171875 C 13.164062 -63.078125 17.351562 -64.03125 23 -64.03125 C 25.019531 -64.03125 27.023438 -63.890625 29.015625 -63.609375 C 31.015625 -63.335938 32.566406 -62.988281 33.671875 -62.5625 L 33.671875 -52.25 C 30.117188 -52.6875 27.421875 -52.90625 25.578125 -52.90625 C 22.453125 -52.90625 20.289062 -52.488281 19.09375 -51.65625 C 17.894531 -50.832031 17.125 -49.066406 16.78125 -46.359375 C 16.445312 -43.660156 16.28125 -38.753906 16.28125 -31.640625 C 16.28125 -24.523438 16.445312 -19.617188 16.78125 -16.921875 C 17.125 -14.222656 17.894531 -12.457031 19.09375 -11.625 C 20.289062 -10.800781 22.453125 -10.390625 25.578125 -10.390625 C 28.398438 -10.390625 31.160156 -10.609375 33.859375 -11.046875 Z M 33.859375 -0.828125 "/></g></g><g style="fill:#f04e23;fill-opacity:1;"><g transform="translate(862.399954, 415.605673)"><path style="stroke:none" d="M 4.78125 0 L 4.78125 -63.296875 L 35.515625 -63.296875 L 35.515625 -52.15625 L 17.484375 -52.15625 L 17.484375 -37.53125 L 33.03125 -37.53125 L 33.03125 -26.40625 L 17.484375 -26.40625 L 17.484375 -11.125 L 35.515625 -11.125 L 35.515625 0 Z M 4.78125 0 "/></g></g></g></svg>