<svg width="50" height="50" viewBox="0 0 50 50" fill="none" xmlns="http://www.w3.org/2000/svg">
<g clip-path="url(#clip0_61_22)">
<path d="M39.082 22.4253C40.3027 23.646 40.3027 25.6284 39.082 26.8491L26.582 39.3491C25.3613 40.5698 23.3789 40.5698 22.1582 39.3491C20.9375 38.1284 20.9375 36.146 22.1582 34.9253L29.3262 27.7573H-6.875C-8.60352 27.7573 -10 26.3608 -10 24.6323C-10 22.9038 -8.60352 21.5073 -6.875 21.5073H29.3262L22.1582 14.3394C20.9375 13.1187 20.9375 11.1362 22.1582 9.91553C23.3789 8.69482 25.3613 8.69482 26.582 9.91553L39.082 22.4155V22.4253Z" fill="white"/>
</g>
<defs>
<clipPath id="clip0_61_22">
<rect width="50" height="50" fill="white" transform="matrix(1 0 0 -1 0 50)"/>
</clipPath>
</defs>
</svg>
